<svg width="20" height="20" viewBox="0 0 20 20" fill="none" xmlns="http://www.w3.org/2000/svg">
<path fill-rule="evenodd" clip-rule="evenodd" d="M20 10C20 15.5228 15.5228 20 10 20C8.4003 20 6.88837 19.6244 5.54753 18.9565C5.19121 18.7791 4.78393 18.72 4.39939 18.8229L2.17335 19.4185C1.20701 19.677 0.32295 18.793 0.58151 17.8267L1.17712 15.6006C1.28001 15.2161 1.22094 14.8088 1.04346 14.4525C0.37562 13.1116 0 11.5997 0 10C0 4.47715 4.47715 0 10 0C15.5228 0 20 4.47715 20 10ZM14 11C13.4477 11 13 10.5523 13 10C13 9.4477 13.4477 9 14 9C14.5523 9 15 9.4477 15 10C15 10.5523 14.5523 11 14 11ZM9 10C9 10.5523 9.4477 11 10 11C10.5523 11 11 10.5523 11 10C11 9.4477 10.5523 9 10 9C9.4477 9 9 9.4477 9 10ZM6 11C5.44772 11 5 10.5523 5 10C5 9.4477 5.44772 9 6 9C6.55228 9 7 9.4477 7 10C7 10.5523 6.55228 11 6 11Z" fill="currentColor"/>
</svg>
