<svg width="24" height="24" viewBox="0 0 24 24" fill="none" xmlns="http://www.w3.org/2000/svg">
<path fill-rule="evenodd" clip-rule="evenodd" d="M2.06935 5.25839C2 5.62595 2 6.06722 2 6.94975V14C2 17.7712 2 19.6569 3.17157 20.8284C4.34315 22 6.22876 22 10 22H14C17.7712 22 19.6569 22 20.8284 20.8284C22 19.6569 22 17.7712 22 14V11.7979C22 9.16554 22 7.84935 21.2305 6.99383C21.1598 6.91514 21.0849 6.84024 21.0062 6.76946C20.1506 6 18.8345 6 16.2021 6H15.8284C14.6747 6 14.0979 6 13.5604 5.84678C13.2651 5.7626 12.9804 5.64471 12.7121 5.49543C12.2237 5.22367 11.8158 4.81578 11 4L10.4497 3.44975L10.4494 3.44944C10.1762 3.17623 10.0395 3.03957 9.89594 2.92051C9.27652 2.40704 8.51665 2.09229 7.71557 2.01738C7.52976 2 7.33642 2 6.94975 2C6.06722 2 5.62595 2 5.25839 2.06935C3.64031 2.37464 2.37464 3.64031 2.06935 5.25839ZM13 9.25C12.5858 9.25 12.25 9.58579 12.25 10C12.25 10.4142 12.5858 10.75 13 10.75H18C18.4142 10.75 18.75 10.4142 18.75 10C18.75 9.58579 18.4142 9.25 18 9.25H13Z" fill="currentColor"/>
<path d="M16.9856 3.02094C16.8321 3 16.6492 3 16.2835 3H12L12.3699 3.38312C13.0359 4.07299 13.2919 4.33051 13.5877 4.50096C13.7594 4.5999 13.9415 4.67804 14.1304 4.73383C14.4559 4.82993 14.8128 4.83538 15.7546 4.83538H16.089C17.0914 4.83536 17.8995 4.83535 18.5389 4.91862C18.6984 4.93939 18.8521 4.96582 19 5C18.8144 3.96313 18.0043 3.15985 16.9856 3.02094Z" fill="currentColor"/>
</svg>
